<svg xmlns="http://www.w3.org/2000/svg" viewBox="0 0 512 512" width="512" height="512" role="img" aria-label="minions"><g transform="translate(62.83,371.91) scale(0.48022,-0.48022)"><path d="M114 -9.25Q77.75 -9.25 62.0 1.625Q46.25 12.5 43.0 29.875Q39.75 47.25 39.75 66.5V416.75Q39.75 436.5 43.375 453.25Q47 470 62.875 480.375Q78.75 490.75 115.75 490.75Q153 490.75 169.875 476.125Q186.75 461.5 186.75 428.75L174 417.5Q176.25 422.75 186.0 434.625Q195.75 446.5 211.875 459.875Q228 473.25 249.375 482.625Q270.75 492 296.25 492Q328.5 492 355.125 482.5Q381.75 473 403.375 454.25Q425 435.5 440.75 408.25Q454.75 428 474.875 447.125Q495 466.25 522.25 479.125Q549.5 492 583.5 492Q642 492 682.5 462.5Q723 433 743.875 377.75Q764.75 322.5 764.75 244.75V66.25Q764.75 47 761.125 29.625Q757.5 12.25 741.75 1.5Q726 -9.25 688.75 -9.25Q652.25 -9.25 636.375 2.0Q620.5 13.25 617.25 30.625Q614 48 614 67.25V245.75Q614 276.5 606.75 297.75Q599.5 319 585.375 330.375Q571.25 341.75 549.25 341.75Q526 341.75 509.875 331.125Q493.75 320.5 485.625 299.25Q477.5 278 477.5 245V66Q477.5 46.25 472.875 28.625Q468.25 11 451.625 0.5Q435 -10 398.5 -9Q363.25 -8.5 348.0 2.875Q332.75 14.25 329.75 31.5Q326.75 48.75 326.75 67.25V245.75Q326.75 276.5 319.875 298.125Q313 319.75 298.875 330.75Q284.75 341.75 262 341.75Q236.5 341.75 220.75 328.875Q205 316 197.625 294.375Q190.25 272.75 190.25 245.75V65.5Q190.25 46.25 186.625 28.875Q183 11.5 167.125 1.125Q151.25 -9.25 114 -9.25Z" fill="#5B53E8"/><circle cx="224.6" cy="351.6" r="108.8" fill="#ffffff"/><circle cx="579.9" cy="351.6" r="108.8" fill="#ffffff"/><circle cx="224.6" cy="351.6" r="54.4" fill="#5B53E8"/><circle cx="579.9" cy="351.6" r="54.4" fill="#5B53E8"/></g></svg>